<?xml version="1.0" encoding="UTF-8"?>
<svg xmlns="http://www.w3.org/2000/svg" xmlns:xlink="http://www.w3.org/1999/xlink" width="16pt" height="16pt" viewBox="0 0 16 16" version="1.1">
<g id="surface1">
<rect x="0" y="0" width="16" height="16" style="fill:rgb(7.058824%,6.27451%,5.490196%);fill-opacity:1;stroke:none;"/>
<path style=" stroke:none;fill-rule:nonzero;fill:rgb(100%,100%,100%);fill-opacity:1;" d="M 3.816406 5.351562 C 3.832031 5.21875 3.78125 5.089844 3.683594 5 L 2.679688 3.789062 L 2.679688 3.609375 L 5.796875 3.609375 L 8.203125 8.894531 L 10.320312 3.609375 L 13.292969 3.609375 L 13.292969 3.789062 L 12.433594 4.613281 C 12.359375 4.671875 12.324219 4.761719 12.339844 4.855469 L 12.339844 10.898438 C 12.324219 10.992188 12.359375 11.082031 12.433594 11.140625 L 13.273438 11.964844 L 13.273438 12.144531 L 9.058594 12.144531 L 9.058594 11.964844 L 9.925781 11.121094 C 10.011719 11.035156 10.011719 11.011719 10.011719 10.878906 L 10.011719 5.992188 L 7.597656 12.125 L 7.269531 12.125 L 4.460938 5.992188 L 4.460938 10.101562 C 4.4375 10.273438 4.496094 10.449219 4.617188 10.574219 L 5.746094 11.941406 L 5.746094 12.125 L 2.542969 12.125 L 2.542969 11.941406 L 3.671875 10.574219 C 3.792969 10.449219 3.847656 10.273438 3.816406 10.101562 Z M 3.816406 5.351562 "/>
</g>
</svg>
